<svg width="429" height="101.80383110804623" viewBox="0 0 369.9130434782609 87.78220280401919" class="looka-1j8o68f" xmlns="http://www.w3.org/2000/svg">
<defs id="SvgjsDefs4186"></defs>
<g id="SvgjsG4187" featurekey="symbolFeature-0" transform="matrix(1.0363529009341943,0,0,1.0363529009341943,-13.773131002224861,-7.927063513194046)" fill="#1f4283">
<g xmlns="http://www.w3.org/2000/svg">
<path d="M29.529,92.352h40.941c8.953,0,16.238-7.285,16.238-16.238V35.172c0-6.916-4.355-12.82-10.459-15.156v4.634   c0,0.389-0.029,0.771-0.072,1.148c-0.113,0.987-0.369,1.932-0.75,2.811c-1.537,3.55-5.07,6.041-9.178,6.041   c-4.729,0-8.689-3.301-9.727-7.716c-0.088-0.372-0.158-0.749-0.203-1.136c-0.043-0.378-0.07-0.76-0.07-1.148v-5.716h-12.5v5.716   c0,0.389-0.027,0.771-0.07,1.148c-0.045,0.387-0.115,0.764-0.203,1.136c-1.037,4.415-5,7.716-9.727,7.716   c-4.107,0-7.643-2.491-9.18-6.041c-0.379-0.879-0.635-1.823-0.748-2.811c-0.045-0.378-0.072-0.76-0.072-1.148v-4.634   c-6.104,2.336-10.459,8.24-10.459,15.156v40.941C13.291,85.066,20.576,92.352,29.529,92.352z M21.291,49.694h57.418v26.419   c0,4.543-3.697,8.238-8.238,8.238H29.529c-4.543,0-8.238-3.695-8.238-8.238V49.694z"></path>
<path d="M30.473,26.934c0.723,1.035,1.92,1.716,3.277,1.716c1.359,0,2.555-0.681,3.277-1.716c0.238-0.342,0.412-0.728,0.535-1.136   c0.111-0.366,0.188-0.746,0.188-1.148v-5.716v-7.285c0-2.209-1.791-4-4-4s-4,1.791-4,4v7.285v5.716   c0,0.402,0.078,0.782,0.188,1.148C30.061,26.207,30.234,26.592,30.473,26.934z"></path>
<path d="M62.973,26.934c0.723,1.035,1.918,1.716,3.277,1.716c1.357,0,2.553-0.681,3.277-1.716c0.238-0.342,0.412-0.728,0.535-1.136   c0.109-0.366,0.188-0.746,0.188-1.148v-5.716v-7.285c0-2.209-1.791-4-4-4s-4,1.791-4,4v7.285v5.716   c0,0.402,0.076,0.782,0.188,1.148C62.561,26.207,62.732,26.592,62.973,26.934z"></path>
</g>
</g>
<g id="SvgjsG4188" featurekey="nameFeature-0" transform="matrix(1.379450867986461,0,0,1.379450867986461,92.47067455433039,9.744581376065494)" fill="#1f4283">
<path d="M29.121 18.926 c4.7656 0 7.6758 2.1875 7.6758 6.3867 l0 14.688 l-7.1094 0 l0 -12.598 c0 -2.0117 -1.3281 -2.8516 -2.8125 -2.8516 c-1.7969 0 -3.5938 0.9375 -3.5938 4.4922 l0 10.957 l-7.207 0 l0 -12.598 c0 -2.0117 -1.2695 -2.8516 -2.832 -2.8516 c-1.7578 0 -3.5938 0.9375 -3.5938 4.8828 l0 10.566 l-7.0898 0 l0 -20.684 l7.0898 0 l0 2.3242 c1.4648 -1.7578 3.6133 -2.7148 6.1914 -2.7148 c3.2422 0 5.5469 1.0352 6.6797 2.9492 c1.543 -1.9922 3.8281 -2.9492 6.6016 -2.9492 z  M60.84371875 29.433999999999997 l-0.078125 1.6406 l-14.766 0 c0.29297 2.5781 2.1484 3.8086 4.4141 3.8086 c1.7578 0 3.0469 -0.68359 3.6328 -2.207 l6.5625 0.83984 c-1.2695 4.4531 -5.1953 6.875 -10.156 6.875 c-7.1289 0 -11.523 -3.9063 -11.523 -10.703 c0 -6.8555 4.5703 -10.801 11.289 -10.801 c6.0352 0 10.586 3.1055 10.625 10.547 z M50.25771875 23.809 c-2.1484 0 -3.5352 0.78125 -4.0625 2.7539 l7.6563 0 c-0.39063 -1.8164 -1.7969 -2.7539 -3.5938 -2.7539 z M83.73825 29.433999999999997 l-0.078125 1.6406 l-14.766 0 c0.29297 2.5781 2.1484 3.8086 4.4141 3.8086 c1.7578 0 3.0469 -0.68359 3.6328 -2.207 l6.5625 0.83984 c-1.2695 4.4531 -5.1953 6.875 -10.156 6.875 c-7.1289 0 -11.523 -3.9063 -11.523 -10.703 c0 -6.8555 4.5703 -10.801 11.289 -10.801 c6.0352 0 10.586 3.1055 10.625 10.547 z M73.15225 23.809 c-2.1484 0 -3.5352 0.78125 -4.0625 2.7539 l7.6563 0 c-0.39063 -1.8164 -1.7969 -2.7539 -3.5938 -2.7539 z M94.71878125 40 c-4.3945 0 -6.7969 -2.5195 -6.7969 -6.9531 l0 -8.3203 l-3.9648 0 l0 -5.4102 l1.1719 0 c2.1875 0 3.6719 -0.80078 3.6719 -4.3945 l0 -2.1289 l6.3672 0 l0 6.5234 l3.9453 0 l0 5.4102 l-3.9453 0 l0 7.5195 c0 1.7578 0.70313 2.4414 2.1094 2.4414 l1.8359 0 l0 5.3125 l-4.3945 0 z M105.75780625 17.324 c-2.168 0 -3.9258 -1.7188 -3.9258 -3.8867 c0 -2.1094 1.7578 -3.8281 3.9258 -3.8281 c2.0703 0 3.8281 1.7188 3.8281 3.8281 c0 2.168 -1.7578 3.8867 -3.8281 3.8867 z M102.12500625 40 l0 -20.684 l7.168 0 l0 20.684 l-7.168 0 z M139.980375 18.926 c4.7656 0 7.6758 2.1875 7.6758 6.3867 l0 14.688 l-7.1094 0 l0 -12.598 c0 -2.0117 -1.3281 -2.8516 -2.8125 -2.8516 c-1.7969 0 -3.5938 0.9375 -3.5938 4.4922 l0 10.957 l-7.207 0 l0 -12.598 c0 -2.0117 -1.2695 -2.8516 -2.832 -2.8516 c-1.7578 0 -3.5938 0.9375 -3.5938 4.8828 l0 10.566 l-7.0898 0 l0 -20.684 l7.0898 0 l0 2.3242 c1.4648 -1.7578 3.6133 -2.7148 6.1914 -2.7148 c3.2422 0 5.5469 1.0352 6.6797 2.9492 c1.543 -1.9922 3.8281 -2.9492 6.6016 -2.9492 z  M155.06249375 17.324 c-2.168 0 -3.9258 -1.7188 -3.9258 -3.8867 c0 -2.1094 1.7578 -3.8281 3.9258 -3.8281 c2.0703 0 3.8281 1.7188 3.8281 3.8281 c0 2.168 -1.7578 3.8867 -3.8281 3.8867 z M151.42969375 40 l0 -20.684 l7.168 0 l0 20.684 l-7.168 0 z M178.5620625 19.316 l-7.9883 15.293 l7.5195 0 l0 5.3906 l-17.363 0 l7.9297 -15.273 l-7.168 0 l0 -5.4102 l17.07 0 z M201.12496875 29.433999999999997 l-0.078125 1.6406 l-14.766 0 c0.29297 2.5781 2.1484 3.8086 4.4141 3.8086 c1.7578 0 3.0469 -0.68359 3.6328 -2.207 l6.5625 0.83984 c-1.2695 4.4531 -5.1953 6.875 -10.156 6.875 c-7.1289 0 -11.523 -3.9063 -11.523 -10.703 c0 -6.8555 4.5703 -10.801 11.289 -10.801 c6.0352 0 10.586 3.1055 10.625 10.547 z M190.53896875 23.809 c-2.1484 0 -3.5352 0.78125 -4.0625 2.7539 l7.6563 0 c-0.39063 -1.8164 -1.7969 -2.7539 -3.5938 -2.7539 z"></path>
</g>
</svg>